<?xml version="1.0" encoding="UTF-8"?>
<!DOCTYPE svg PUBLIC "-//W3C//DTD SVG 1.1//EN" "http://www.w3.org/Graphics/SVG/1.1/DTD/svg11.dtd">
<!-- Creator: CorelDRAW X7 -->
<svg xmlns="http://www.w3.org/2000/svg" xml:space="preserve" width="45.9366mm" height="49.6654mm" version="1.1" style="shape-rendering:geometricPrecision; text-rendering:geometricPrecision; image-rendering:optimizeQuality; fill-rule:evenodd; clip-rule:evenodd"
viewBox="0 0 1792 1938"
 xmlns:xlink="http://www.w3.org/1999/xlink">
 <defs>
  <style type="text/css">
   <![CDATA[
    .fil0 {fill:#0b0b0b}
   ]]>
  </style>
 </defs>
 <g id="Layer_x0020_1">
  <metadata id="CorelCorpID_0Corel-Layer"/>
  <path class="fil0" d="M742 30c3,-11 8,-21 15,-30 7,22 4,44 6,67 7,115 9,231 15,346 2,2 4,7 6,10 55,-36 127,-39 189,-21 32,8 57,31 81,53 24,-66 42,-135 41,-205 0,-23 0,-50 -19,-66 -9,10 -4,24 -1,36 1,27 -6,53 -11,80 0,8 -6,13 -12,18 -1,-92 -2,-184 -4,-276 -1,-12 -3,-24 -5,-36 6,3 15,4 16,11 18,46 27,95 39,143 27,117 49,238 47,359 -2,6 3,24 -8,16 -10,-11 -19,-23 -29,-33 -5,7 -10,14 -5,22 11,30 22,61 25,93 -4,43 -24,84 -23,128 -2,14 3,35 -15,38 -52,16 -104,33 -148,64 -12,-14 0,-38 -4,-56 -19,4 -20,27 -27,42 -13,-7 -22,-23 -38,-25 0,13 0,27 0,41 -37,-6 -70,-27 -105,-41 -17,-8 -36,-15 -51,-27 -7,-20 -2,-44 10,-62 15,10 29,28 49,25 -6,-42 -38,-77 -38,-121 -1,-23 7,-46 5,-69l-7 0c-20,34 -21,75 -31,112 -3,-7 -7,-13 -8,-20 -23,-123 -5,-249 5,-373 5,-82 21,-163 40,-243zm-7 783c28,13 55,30 85,39 10,2 15,11 12,21 -24,0 -47,-8 -69,-17 -17,-7 -32,-24 -28,-43zm308 20c12,-7 24,-14 37,-19 8,16 -9,28 -21,37 -26,15 -60,27 -87,9 23,-10 49,-14 71,-27zm-142 56c11,2 11,14 13,22 4,30 0,60 -5,90 -1,6 -6,8 -13,8 -14,-5 -20,-15 -21,-27 6,-31 14,-63 26,-93zm-262 174c4,-27 -6,-57 10,-81 13,22 15,48 9,73 9,9 16,25 6,35 -35,42 -98,47 -125,95 0,3 0,7 1,10 23,0 50,-5 70,10 -5,28 27,36 35,59 1,13 -9,24 -18,33 -23,20 -46,39 -67,60 2,2 7,6 9,8 26,-12 53,-24 80,-32 3,1 10,2 13,3 -37,31 -74,61 -112,92 -7,4 -9,12 -12,19 26,-9 49,-25 74,-36 26,-12 50,-30 80,-33 23,1 46,6 66,18 -79,29 -156,66 -226,112 -56,33 -105,78 -153,121 -11,10 -19,22 -29,33 -8,-16 3,-37 -8,-54 -2,-2 -8,-7 -11,-9 -20,9 -35,26 -56,35 10,-28 23,-55 32,-83 2,-9 -5,-16 -14,-17 -27,8 -48,29 -75,37 25,-58 58,-112 93,-164 -3,-10 -14,-12 -23,-9 -49,18 -92,49 -130,85 -39,34 -77,71 -109,114 -26,-51 -18,-111 -12,-165 -21,7 -20,34 -37,46 0,-57 22,-113 58,-157 51,-55 124,-88 199,-95 55,-2 105,-28 155,-46 67,-28 137,-48 198,-88 12,-7 21,-18 29,-29zm560 42c8,-7 17,-7 25,0 108,68 230,124 360,124 28,1 53,12 77,25 33,19 66,40 87,72 22,36 35,76 43,116 3,8 -2,14 -8,18 -6,-27 -21,-57 -50,-65 8,48 17,96 26,145 -35,-34 -80,-53 -123,-73 -43,-15 -86,-30 -131,-39 -4,2 -11,5 -15,7 32,26 61,55 89,84 12,15 26,28 32,46 -34,-5 -69,-24 -105,-16 2,13 18,17 26,25 -13,9 -30,5 -44,9 -4,14 2,28 -2,41 -5,17 -15,31 -26,44 -27,-17 -44,-44 -67,-66 -58,-56 -121,-109 -191,-150 -36,-26 -79,-37 -120,-53 27,-20 63,-16 93,-6 25,8 47,21 73,23 -3,-6 -5,-13 -13,-16 -32,-18 -65,-33 -96,-51 -8,-4 -12,-11 -15,-18 27,-1 54,-2 81,0 38,10 74,27 108,45 20,10 41,22 64,19 1,-12 1,-24 -1,-36 -40,-49 -93,-86 -148,-118 7,-14 20,0 30,2 3,-32 -39,-36 -53,-58 -15,-11 3,-25 7,-37 4,-16 -5,-30 -13,-43zm-54 336c44,17 85,44 122,73 45,42 95,82 129,134 -41,0 -82,1 -121,15 -16,12 -34,23 -49,38 -17,22 -26,49 -38,74 -4,7 -10,15 -20,13 -28,-2 -57,-5 -85,-4 -43,7 -86,24 -116,56 -28,27 -41,65 -63,98 -2,-1 -5,-2 -7,-2 -12,-23 -28,-43 -42,-64 -26,-37 -61,-70 -106,-83 -33,-6 -67,-4 -99,2 -24,-35 -40,-77 -73,-106 -22,-18 -46,-35 -75,-39 -23,-3 -46,0 -69,2 22,-43 58,-77 93,-109 42,-38 94,-63 143,-90 9,-5 13,5 18,10 25,38 57,75 102,87 20,4 44,8 61,-6 4,-15 7,-30 12,-44 14,7 27,17 44,15 15,2 28,-9 42,-14 8,14 2,35 16,47 10,11 26,6 39,3 33,-6 62,-24 89,-42 23,-17 36,-42 53,-64z"/>
 </g>
</svg>
