<svg width="40" height="40" viewBox="0 0 40 40" fill="none" xmlns="http://www.w3.org/2000/svg">
<path d="M19.9988 0.597529C8.95444 0.597529 0 9.55197 0 20.5963C0 29.4332 5.72964 36.9278 13.6766 39.5726C14.6766 39.7576 15.0441 39.1376 15.0441 38.6102C15.0441 38.1327 15.0241 36.5578 15.0166 34.8879C9.45191 36.0978 8.27948 32.528 8.27948 32.528C7.36954 30.2157 6.05962 29.6007 6.05962 29.6007C4.24473 28.3583 6.19711 28.3858 6.19711 28.3858C8.20449 28.5258 9.26192 30.4457 9.26192 30.4457C11.0468 33.503 13.9416 32.618 15.0816 32.1081C15.2615 30.8156 15.779 29.9332 16.3515 29.4332C11.9093 28.9283 7.23955 27.2134 7.23955 19.5488C7.23955 17.3665 8.022 15.5816 9.29942 14.1817C9.09193 13.6767 8.40697 11.6443 9.49191 8.88951C9.49191 8.88951 11.1718 8.35204 14.9941 10.9394C16.589 10.4969 18.2989 10.2744 19.9988 10.2669C21.6986 10.2744 23.411 10.4969 25.0084 10.9394C28.8257 8.35204 30.5031 8.88951 30.5031 8.88951C31.5905 11.6443 30.9081 13.6792 30.7006 14.1817C31.983 15.5816 32.758 17.3665 32.758 19.5488C32.758 27.2309 28.0782 28.9208 23.626 29.4157C24.3435 30.0357 24.9834 31.2531 24.9834 33.118C24.9834 35.7928 24.9609 37.9477 24.9609 38.6052C24.9609 39.1376 25.3209 39.7601 26.3359 39.5651C34.2779 36.9178 40 29.4232 40 20.5913C40 9.54697 31.0456 0.592529 20.0013 0.592529L19.9988 0.597529Z" fill="#2F3237"/>
</svg>
