<svg width="40" height="38" viewBox="0 0 40 38" fill="none" xmlns="http://www.w3.org/2000/svg">
<path d="M14.2859 11.9564H22.1916V16.0078H22.3059C23.4059 14.0335 26.0973 11.9564 30.1116 11.9564C38.4573 11.9564 40.0002 17.1506 40.0002 23.9078V37.6706H31.7573V25.4706C31.7573 22.5621 31.6973 18.8164 27.4716 18.8164C23.1802 18.8164 22.523 21.9849 22.523 25.2592V37.6706H14.2859V11.9564Z" fill="#2F3237"/>
<path d="M0 11.9564H8.57143V37.6706H0V11.9564Z" fill="#2F3237"/>
<path d="M8.57143 4.81355C8.57143 7.17926 6.65143 9.09926 4.28571 9.09926C1.92 9.09926 0 7.17926 0 4.81355C0 2.44783 1.92 0.527832 4.28571 0.527832C6.65143 0.527832 8.57143 2.44783 8.57143 4.81355Z" fill="#2F3237"/>
</svg>
