<svg width="40" height="41" viewBox="0 0 40 41" fill="none" xmlns="http://www.w3.org/2000/svg">
<path d="M34.1687 5.84134C30.4076 2.07273 25.4054 0 20.0766 0C9.09993 0 0.165819 8.93411 0.165819 19.9183C0.165819 23.4282 1.08536 26.8601 2.82646 29.875L0 40.1985L10.5596 37.4273C13.4715 39.0126 16.7477 39.8543 20.0741 39.8543H20.0817C31.0584 39.8543 40 30.9202 40 19.9359C40 14.6121 37.9273 9.61246 34.1662 5.84385L34.1687 5.84134ZM20.0817 36.4927C17.107 36.4927 14.1926 35.6912 11.65 34.1838L11.0445 33.822L4.77859 35.4626L6.45186 29.3549L6.05992 28.7268C4.3942 26.0964 3.5249 23.0513 3.5249 19.9183C3.5249 10.7883 10.9516 3.35909 20.0917 3.35909C24.511 3.35909 28.6741 5.08762 31.797 8.21054C34.9224 11.3435 36.6409 15.4965 36.6409 19.9234C36.6334 29.061 29.2067 36.4927 20.0817 36.4927ZM29.159 24.0889C28.664 23.8377 26.2144 22.6368 25.7597 22.471C25.3049 22.3051 24.9733 22.2197 24.6366 22.7222C24.3075 23.2171 23.3503 24.3402 23.0589 24.6768C22.7674 25.006 22.4785 25.0537 21.9835 24.8025C21.4886 24.5512 19.8781 24.0261 17.9788 22.3303C16.5015 21.0112 15.499 19.3782 15.2076 18.8832C14.9161 18.3883 15.1749 18.1144 15.4287 17.8707C15.6573 17.6496 15.9236 17.2904 16.1749 16.9989C16.4261 16.7075 16.504 16.504 16.6698 16.1673C16.8356 15.8382 16.7552 15.5468 16.6296 15.2955C16.504 15.0443 15.5066 12.5947 15.0996 11.5973C14.7001 10.6224 14.283 10.7581 13.9765 10.7405C13.6851 10.7255 13.3559 10.7255 13.0268 10.7255C12.6977 10.7255 12.155 10.8511 11.7003 11.346C11.2455 11.841 9.95666 13.0494 9.95666 15.499C9.95666 17.9486 11.738 20.3128 11.9892 20.6495C12.2404 20.9786 15.499 26.0109 20.4912 28.1641C21.677 28.6741 22.6041 28.9806 23.3252 29.2168C24.5186 29.5936 25.6014 29.5383 26.4581 29.4127C27.4154 29.272 29.4027 28.2118 29.8197 27.0486C30.2368 25.8853 30.2368 24.8904 30.1112 24.6844C29.9931 24.4633 29.664 24.3402 29.1615 24.0864L29.159 24.0889Z" fill="#00A884"/>
</svg>
